# Blender 4.1.1
# www.blender.org
mtllib button1.mtl
o Circle
v 0.002028 0.000000 0.068313
v 0.002028 0.003291 0.067989
v 0.002028 0.006456 0.067029
v 0.002028 0.009372 0.065470
v 0.002028 0.011929 0.063372
v 0.002028 0.014026 0.060816
v 0.002028 0.015585 0.057899
v 0.002028 0.016545 0.054735
v 0.002028 0.016545 -0.054735
v 0.002028 0.015585 -0.057899
v 0.002028 0.014026 -0.060816
v 0.002028 0.011929 -0.063372
v 0.002028 0.009372 -0.065470
v 0.002028 0.006456 -0.067029
v 0.002028 0.003291 -0.067989
v 0.002028 0.000000 -0.068313
v 0.002028 -0.003291 -0.067989
v 0.002028 -0.006456 -0.067029
v 0.002028 -0.009372 -0.065470
v 0.002028 -0.011929 -0.063372
v 0.002028 -0.014026 -0.060816
v 0.002028 -0.015585 -0.057899
v 0.002028 -0.016545 -0.054735
v 0.002028 -0.016545 0.054735
v 0.002028 -0.015585 0.057899
v 0.002028 -0.014026 0.060816
v 0.002028 -0.011929 0.063372
v 0.002028 -0.009372 0.065470
v 0.002028 -0.006456 0.067029
v 0.002028 -0.003291 0.067989
v -0.002028 0.000000 0.068313
v -0.002028 0.003291 0.067989
v -0.002028 0.006456 0.067029
v -0.002028 0.009372 0.065470
v -0.002028 0.011929 0.063372
v -0.002028 0.014026 0.060816
v -0.002028 0.015585 0.057899
v -0.002028 0.016545 0.054735
v -0.002028 0.016545 -0.054735
v -0.002028 0.015585 -0.057899
v -0.002028 0.014026 -0.060816
v -0.002028 0.011929 -0.063372
v -0.002028 0.009372 -0.065470
v -0.002028 0.006456 -0.067029
v -0.002028 0.003291 -0.067989
v -0.002028 0.000000 -0.068313
v -0.002028 -0.003291 -0.067989
v -0.002028 -0.006456 -0.067029
v -0.002028 -0.009372 -0.065470
v -0.002028 -0.011929 -0.063372
v -0.002028 -0.014026 -0.060816
v -0.002028 -0.015585 -0.057899
v -0.002028 -0.016545 -0.054735
v -0.002028 -0.016545 0.054735
v -0.002028 -0.015585 0.057899
v -0.002028 -0.014026 0.060816
v -0.002028 -0.011929 0.063372
v -0.002028 -0.009372 0.065470
v -0.002028 -0.006456 0.067029
v -0.002028 -0.003291 0.067989
vn -0.0000 0.8819 0.4714
vn -0.0000 1.0000 -0.0000
vn -0.0000 0.9569 0.2903
vn -0.0000 -0.9569 0.2903
vn -0.0000 -0.8819 0.4714
vn -0.0000 -0.7730 0.6344
vn -0.0000 0.9569 -0.2903
vn -0.0000 -0.6344 0.7730
vn -0.0000 0.8819 -0.4714
vn -0.0000 -0.4714 0.8819
vn -0.0000 -0.0980 -0.9952
vn -0.0000 0.7730 -0.6344
vn -0.0000 -0.2903 0.9569
vn -0.0000 -0.2903 -0.9569
vn -0.0000 0.6344 -0.7730
vn -0.0000 -0.0980 0.9952
vn -0.0000 -0.4714 -0.8819
vn -0.0000 0.4714 -0.8819
vn -0.0000 0.0980 0.9952
vn -0.0000 -0.6344 -0.7730
vn -0.0000 0.2903 -0.9569
vn -0.0000 0.2903 0.9569
vn -0.0000 -0.7730 -0.6344
vn -0.0000 0.0980 -0.9952
vn -0.0000 0.4714 0.8819
vn -0.0000 -0.8819 -0.4714
vn -0.0000 0.6344 0.7730
vn -0.0000 -0.9569 -0.2903
vn -0.0000 0.7730 0.6344
vn -1.0000 -0.0000 -0.0000
vn 1.0000 -0.0000 -0.0000
vt 0.013071 0.372632
vt 0.000055 0.362018
vt 0.013071 0.362018
vt 0.013071 0.351404
vt 0.000055 0.000055
vt 0.013070 0.000055
vt 0.000055 0.351404
vt 0.013071 0.500000
vt 0.000055 0.489386
vt 0.013071 0.489386
vt 0.013071 0.478772
vt 0.000055 0.478772
vt 0.000055 0.468158
vt 0.013071 0.468158
vt 0.013072 0.999945
vt 0.000056 0.989331
vt 0.013072 0.989331
vt 0.000055 0.457544
vt 0.013071 0.457544
vt 0.000056 0.978717
vt 0.013072 0.978717
vt 0.000055 0.446930
vt 0.013071 0.446930
vt 0.013072 0.925647
vt 0.000056 0.915033
vt 0.013072 0.915033
vt 0.000056 0.968103
vt 0.013072 0.968103
vt 0.000055 0.436316
vt 0.013071 0.436316
vt 0.000056 0.904419
vt 0.013072 0.904419
vt 0.000056 0.957489
vt 0.013072 0.957489
vt 0.000055 0.425702
vt 0.013071 0.425702
vt 0.000056 0.893805
vt 0.013072 0.893805
vt 0.000056 0.946875
vt 0.013072 0.946875
vt 0.000055 0.415088
vt 0.013071 0.415088
vt 0.013072 0.883191
vt 0.000056 0.883191
vt 0.013072 0.936261
vt 0.000056 0.936261
vt 0.000055 0.404474
vt 0.013071 0.404474
vt 0.000056 0.872577
vt 0.013072 0.872577
vt 0.000056 0.925647
vt 0.000055 0.393860
vt 0.013071 0.393860
vt 0.000056 0.861963
vt 0.013072 0.861963
vt 0.000055 0.383246
vt 0.013071 0.383246
vt 0.000056 0.851349
vt 0.013072 0.851349
vt 0.000055 0.372632
vt 0.307087 0.592111
vt 0.272632 0.569089
vt 0.287570 0.493989
vt 0.692892 0.462773
vt 0.658436 0.485796
vt 0.677954 0.387674
vt 0.000055 0.500000
vt 0.000056 0.999945
vt 0.702017 0.539008
vt 0.700977 0.549571
vt 0.697896 0.559728
vt 0.692892 0.569089
vt 0.686159 0.577294
vt 0.677954 0.584027
vt 0.668594 0.589030
vt 0.658437 0.592111
vt 0.668594 0.488986
vt 0.658437 0.485905
vt 0.296930 0.589030
vt 0.287570 0.584027
vt 0.279365 0.577293
vt 0.267628 0.559728
vt 0.264547 0.549571
vt 0.263507 0.539008
vt 0.264547 0.528445
vt 0.267628 0.518288
vt 0.272632 0.508927
vt 0.279365 0.500723
vt 0.296930 0.488986
vt 0.307087 0.485905
vt 0.677954 0.493989
vt 0.697896 0.518288
vt 0.686159 0.500723
vt 0.692892 0.508928
vt 0.700977 0.528445
vt 0.267628 0.453412
vt 0.264547 0.443255
vt 0.263507 0.432692
vt 0.264547 0.422129
vt 0.267628 0.411972
vt 0.272631 0.402612
vt 0.279365 0.394407
vt 0.287570 0.387673
vt 0.296930 0.382670
vt 0.307087 0.379589
vt 0.307087 0.485796
vt 0.658436 0.379589
vt 0.668593 0.382670
vt 0.686159 0.394407
vt 0.692892 0.402612
vt 0.697896 0.411972
vt 0.700977 0.422129
vt 0.702017 0.432692
vt 0.700977 0.443255
vt 0.697896 0.453412
vt 0.686159 0.470978
vt 0.677954 0.477711
vt 0.668593 0.482715
vt 0.296930 0.482714
vt 0.287570 0.477711
vt 0.279365 0.470978
vt 0.272632 0.462773
s 0
usemtl Material.001
f 21/1/1 52/2/1 22/3/1
f 23/4/2 54/5/2 24/6/2
f 22/3/3 53/7/3 23/4/3
f 9/8/4 40/9/4 10/10/4
f 11/11/5 40/9/5 41/12/5
f 11/11/6 42/13/6 12/14/6
f 24/15/7 55/16/7 25/17/7
f 12/14/8 43/18/8 13/19/8
f 25/17/9 56/20/9 26/21/9
f 13/19/10 44/22/10 14/23/10
f 1/24/11 32/25/11 2/26/11
f 26/21/12 57/27/12 27/28/12
f 14/23/13 45/29/13 15/30/13
f 2/26/14 33/31/14 3/32/14
f 27/28/15 58/33/15 28/34/15
f 15/30/16 46/35/16 16/36/16
f 3/32/17 34/37/17 4/38/17
f 28/34/18 59/39/18 29/40/18
f 16/36/19 47/41/19 17/42/19
f 5/43/20 34/37/20 35/44/20
f 30/45/21 59/39/21 60/46/21
f 17/42/22 48/47/22 18/48/22
f 5/43/23 36/49/23 6/50/23
f 30/45/24 31/51/24 1/24/24
f 18/48/25 49/52/25 19/53/25
f 6/50/26 37/54/26 7/55/26
f 19/53/27 50/56/27 20/57/27
f 7/55/28 38/58/28 8/59/28
f 20/57/29 51/60/29 21/1/29
f 9/8/2 38/58/2 8/59/2
f 9/61/30 13/62/30 21/63/30
f 43/64/31 39/65/31 51/66/31
f 21/1/1 51/60/1 52/2/1
f 23/4/2 53/7/2 54/5/2
f 22/3/3 52/2/3 53/7/3
f 9/8/4 39/67/4 40/9/4
f 11/11/5 10/10/5 40/9/5
f 11/11/6 41/12/6 42/13/6
f 24/15/7 54/68/7 55/16/7
f 12/14/8 42/13/8 43/18/8
f 25/17/9 55/16/9 56/20/9
f 13/19/10 43/18/10 44/22/10
f 1/24/11 31/51/11 32/25/11
f 26/21/12 56/20/12 57/27/12
f 14/23/13 44/22/13 45/29/13
f 2/26/14 32/25/14 33/31/14
f 27/28/15 57/27/15 58/33/15
f 15/30/16 45/29/16 46/35/16
f 3/32/17 33/31/17 34/37/17
f 28/34/18 58/33/18 59/39/18
f 16/36/19 46/35/19 47/41/19
f 5/43/20 4/38/20 34/37/20
f 30/45/21 29/40/21 59/39/21
f 17/42/22 47/41/22 48/47/22
f 5/43/23 35/44/23 36/49/23
f 30/45/24 60/46/24 31/51/24
f 18/48/25 48/47/25 49/52/25
f 6/50/26 36/49/26 37/54/26
f 19/53/27 49/52/27 50/56/27
f 7/55/28 37/54/28 38/58/28
f 20/57/29 50/56/29 51/60/29
f 9/8/2 39/67/2 38/58/2
f 1/69/30 2/70/30 3/71/30
f 3/71/30 4/72/30 5/73/30
f 5/73/30 6/74/30 7/75/30
f 7/75/30 8/76/30 25/77/30
f 8/76/30 9/61/30 24/78/30
f 25/77/30 8/76/30 24/78/30
f 9/61/30 10/79/30 11/80/30
f 11/80/30 12/81/30 9/61/30
f 12/81/30 13/62/30 9/61/30
f 13/62/30 14/82/30 15/83/30
f 15/83/30 16/84/30 13/62/30
f 16/84/30 17/85/30 13/62/30
f 17/85/30 18/86/30 19/87/30
f 19/87/30 20/88/30 21/63/30
f 21/63/30 22/89/30 23/90/30
f 23/90/30 24/78/30 9/61/30
f 25/77/30 26/91/30 29/92/30
f 26/91/30 27/93/30 29/92/30
f 27/93/30 28/94/30 29/92/30
f 29/92/30 30/95/30 5/73/30
f 30/95/30 1/69/30 5/73/30
f 1/69/30 3/71/30 5/73/30
f 5/73/30 7/75/30 29/92/30
f 29/92/30 7/75/30 25/77/30
f 17/85/30 19/87/30 13/62/30
f 19/87/30 21/63/30 13/62/30
f 21/63/30 23/90/30 9/61/30
f 33/96/31 32/97/31 31/98/31
f 31/98/31 60/99/31 33/96/31
f 60/99/31 59/100/31 33/96/31
f 59/100/31 58/101/31 57/102/31
f 57/102/31 56/103/31 59/100/31
f 56/103/31 55/104/31 59/100/31
f 55/104/31 54/105/31 38/106/31
f 54/105/31 53/107/31 39/65/31
f 53/107/31 52/108/31 51/66/31
f 51/66/31 50/109/31 49/110/31
f 49/110/31 48/111/31 47/112/31
f 47/112/31 46/113/31 43/64/31
f 46/113/31 45/114/31 43/64/31
f 45/114/31 44/115/31 43/64/31
f 43/64/31 42/116/31 39/65/31
f 42/116/31 41/117/31 39/65/31
f 41/117/31 40/118/31 39/65/31
f 39/65/31 38/106/31 54/105/31
f 38/106/31 37/119/31 55/104/31
f 37/119/31 36/120/31 35/121/31
f 35/121/31 34/122/31 33/96/31
f 53/107/31 51/66/31 39/65/31
f 51/66/31 49/110/31 43/64/31
f 49/110/31 47/112/31 43/64/31
f 37/119/31 35/121/31 55/104/31
f 35/121/31 33/96/31 59/100/31
f 59/100/31 55/104/31 35/121/31
